<svg xmlns="http://www.w3.org/2000/svg" viewBox="0 0 436.88 138.05"><defs><style>.cls-1{fill:#625da9;}.cls-2{fill:#47a8de;}</style></defs><g id="Layer_2" data-name="Layer 2"><g id="Layer_1-2" data-name="Layer 1"><path class="cls-1" d="M2.73,88.17C-5.15,68.54,4.55,43.55,25.25,28.75c3.47-2.49,22.82-15.81,49-14.58,49.49,2.32,53.55,53.42,96.4,59,36.25,4.74,51-29.53,151.35-63.69,25.87-8.8,43.74-12.94,55.74-6.06,15.93,9.14,19.28,36.43,6,53.69-21.6,28-70.5,8.06-155.74,31-67.55,18.13-72.88,40.34-123.08,40.76C72.74,129.12,15.71,120.52,2.73,88.17Z"/><path class="cls-2" d="M47.66,97.36c-7.87-19.63,1.83-44.62,22.53-59.42,3.47-2.48,22.81-15.81,49-14.58,49.48,2.32,53.55,53.42,96.39,59,36.26,4.74,51-29.53,151.36-63.69,25.86-8.8,43.73-12.94,55.73-6.06,15.94,9.14,19.28,36.43,6,53.69-21.61,28-70.5,8.07-155.75,31C205.33,115.41,200,137.62,149.81,138,117.68,138.31,60.64,129.71,47.66,97.36Z"/></g></g></svg>